<?xml version="1.0" standalone="no"?>
<!DOCTYPE svg PUBLIC "-//W3C//DTD SVG 20010904//EN"
 "http://www.w3.org/TR/2001/REC-SVG-20010904/DTD/svg10.dtd">
<svg version="1.0" xmlns="http://www.w3.org/2000/svg"
 width="525.000000pt" height="525.000000pt" viewBox="0 0 525.000000 525.000000"
 preserveAspectRatio="xMidYMid meet">
<metadata>
Created by potrace 1.14, written by Peter Selinger 2001-2017
</metadata>
<g transform="translate(0.000000,525.000000) scale(0.100000,-0.100000)"
fill="#000000" stroke="none">
<path d="M1520 4072 c-6 -2 3 -28 21 -60 18 -32 40 -71 49 -88 78 -138 115
-203 129 -224 9 -14 28 -47 43 -75 15 -27 51 -93 81 -145 l55 -95 -36 -3 c-78
-5 -100 -13 -118 -40 -27 -40 -14 -100 25 -118 9 -4 137 -8 285 -9 l269 -2 24
-28 c32 -37 29 -90 -9 -118 -25 -19 -43 -20 -489 -19 l-462 0 -29 -28 c-37
-37 -36 -73 1 -111 l30 -29 915 0 915 1 33 33 c18 19 42 45 53 58 18 22 102
118 160 182 11 13 39 45 63 72 41 48 106 122 154 175 12 15 46 53 73 84 28 32
57 65 65 75 8 9 44 50 80 91 35 41 67 76 70 79 11 11 98 109 145 164 28 33 64
73 80 91 49 54 74 85 67 86 -21 3 -789 5 -799 1 -6 -2 -87 -89 -180 -194 -201
-228 -193 -219 -251 -287 -26 -30 -60 -69 -77 -87 -16 -19 -49 -55 -72 -81
-23 -27 -57 -65 -76 -86 l-34 -38 -19 38 c-11 21 -36 66 -57 99 -20 34 -37 64
-37 68 0 3 -15 29 -33 58 -19 29 -36 61 -40 70 -3 10 -22 43 -42 73 -19 31
-35 58 -35 61 0 3 -22 42 -50 88 -27 46 -50 86 -50 89 0 3 -18 34 -40 69 l-39
63 -400 0 c-220 0 -405 -1 -411 -3z"/>
<path d="M1501 2699 c-21 -13 -32 -29 -37 -55 -6 -34 -4 -40 26 -67 32 -28 33
-29 137 -25 96 3 106 5 124 27 25 31 24 81 -1 109 -24 25 -17 24 -132 27 -70
1 -94 -2 -117 -16z"/>
<path d="M1999 2712 c-33 -10 -59 -46 -59 -82 0 -24 7 -42 23 -55 21 -19 42
-20 394 -25 369 -5 373 -5 395 -27 29 -30 29 -82 -1 -114 l-22 -24 -519 -1
-520 -1 -25 -27 c-31 -33 -32 -75 -4 -107 17 -20 33 -25 92 -29 l72 -5 -35
-37 c-19 -20 -53 -57 -75 -83 -22 -26 -56 -64 -75 -85 -19 -21 -54 -60 -76
-87 -78 -91 -137 -158 -153 -174 -9 -9 -27 -29 -40 -45 -13 -16 -40 -47 -60
-69 -20 -23 -63 -72 -96 -109 -33 -38 -69 -79 -80 -92 -11 -12 -40 -46 -65
-74 -25 -28 -60 -68 -78 -88 l-33 -37 408 -3 408 -2 30 36 c16 20 41 48 55 63
14 15 54 61 90 102 35 41 79 90 96 109 30 33 53 59 189 214 33 37 69 78 80 90
11 13 43 49 70 81 60 71 105 122 164 186 l44 48 33 -56 c19 -30 34 -57 34 -59
0 -3 20 -38 45 -78 25 -41 45 -77 45 -79 0 -3 18 -35 41 -72 22 -37 43 -74 46
-83 4 -10 18 -35 33 -57 15 -22 29 -47 33 -57 3 -9 24 -46 46 -83 23 -37 41
-69 41 -72 0 -3 16 -32 36 -64 20 -33 48 -83 64 -112 l28 -52 416 -3 417 -2
-33 59 c-96 173 -213 379 -228 401 -9 14 -32 54 -51 90 -18 36 -36 67 -40 70
-3 3 -15 23 -26 45 -11 22 -53 96 -93 165 -40 69 -85 148 -100 175 -15 28 -47
84 -70 125 -24 41 -51 91 -62 110 -10 19 -30 53 -43 75 -14 22 -41 70 -61 106
l-36 65 -548 0 c-301 0 -554 -2 -561 -4z"/>
</g>
</svg>
